<?xml version="1.0" encoding="utf-8"?>
<!-- Generator: Adobe Illustrator 28.0.0, SVG Export Plug-In . SVG Version: 6.00 Build 0)  -->
<svg version="1.1" id="Layer_1" xmlns="http://www.w3.org/2000/svg" xmlns:xlink="http://www.w3.org/1999/xlink" x="0px" y="0px"
	 width="512px" height="256px" viewBox="0 0 512 256" style="enable-background:new 0 0 512 256;" xml:space="preserve">
<style type="text/css">
	.donkeh{fill:#e87510;}
	.st0{fill:#ffffff;}
	.st1{fill:#ffffff;}
	.st2{fill:#ffffff;}
	.st3{fill:#ffffff;}
</style>
<path class="donkeh" d="M221.0967865,97.1928787c-1.0936737-2.3130646-2.4542236-5.1907501-3.9630585-9.2546234
	c-2.1339417-5.743515-5.6130219-11.2486038-10.3387909-16.3622589c-1.2111053-1.3095474-2.5028534-2.4767532-3.7898712-3.6095657
	c1.1660309-0.9596252,1.7662354-1.3724136,1.7982635-1.3949509c1.118576-0.7342529,1.4317169-2.2359619,0.6998444-3.3569107
	c-0.7318726-1.1245041-2.238327-1.4435883-3.3616486-0.7069664c-0.110321,0.0711708-1.039093,0.7081528-2.8041382,2.1968193
	c-0.4519501-0.4187241-0.8599854-0.8718491-1.2870178-1.3059921c1.1624603-2.0058403,4.0792999-3.8017273,5.1266937-4.3200912
	c1.2004242-0.5942802,1.6950684-2.0509148,1.1019745-3.2525215c-0.5930939-1.1992378-2.0378723-1.6962471-3.2465973-1.1078987
	c-0.4993896,0.2443542-4.0282898,2.0663338-6.3271179,5.0057068c-0.4365234-0.4851532-0.9015045-0.9643707-1.359375-1.4471474
	c0.6180115-1.0011444,1.3083649-2.3759308,1.733017-3.2548981c0.5836029-1.2087212,0.0771027-2.660614-1.1304321-3.2442169
	c-1.2098999-0.5847931-2.6618042-0.078289-3.2442169,1.1304359c-0.292984,0.6061401-0.6512146,1.3083611-0.9691162,1.9002686
	c-0.7603455-0.6464729-1.5372925-1.2715912-2.3439026-1.8290977c-7.8300171-5.4196854-11.2130127-9.1597328-11.7313843-10.7148247
	c-0.3155212-0.9442024-1.1743164-1.6013489-2.1695404-1.6571007c-0.9560547-0.0521927-1.9204254,0.5005722-2.340332,1.405632
	c-0.1352386,0.2929878-3.27388,7.2997894,0.7318726,18.3467445c0.7259369,2.0022812,1.5408478,3.6522675,2.3854218,5.0258713
	c-0.7046051,0.3807678-1.5384827,0.8267746-2.4909973,1.3297119c-0.9358978-1.9441605-2.4221954-4.0994568-3.4529877-5.4908524
	c-0.7971191-1.0782471-2.3190002-1.302433-3.3972321-0.5076904c-1.0782471,0.7971191-1.3059998,2.3189964-0.5076904,3.3972397
	c1.2834473,1.7353897,2.5111542,3.6961594,3.0674744,4.8206635c-1.1802521,0.5978317-2.4257507,1.214653-3.7163239,1.8409576
	c-0.524292-1.0735016-1.523056-2.7804184-3.4743347-5.7079315c-0.7449188-1.1173859-2.2525635-1.4198608-3.3687744-0.6737518
	c-1.1161957,0.7437363-1.4174957,2.2527161-0.6737518,3.3687668c1.2134705,1.8208008,2.6119843,4.0675888,3.1291656,5.078064
	c-0.9691162,0.4412613-1.9394226,0.8706665-2.9073486,1.2871628c-1.2241364-2.3605118-3.5099182-4.8764114-4.3367004-5.743515
	c-0.9216614-0.9726715-2.4636993-1.008255-3.4340057-0.0843658c-0.9714813,0.9252243-1.0094452,2.4625244-0.0842133,3.4340134
	c1.3368225,1.4032516,2.6499329,3.088829,3.336731,4.2204514c-0.9714813,0.3653412-1.9275513,0.7105255-2.833786,1.0046997
	h-0.0011902c-1.3771667-1.6108475-3.8242645-4.3853378-5.1800842-5.4018936
	c-1.0723114-0.8077927-2.5965576-0.5847931-3.4007874,0.4851456c-0.8054199,1.0735016-0.5883484,2.5965652,0.4851532,3.400795
	c0.6037598,0.453125,1.8978882,1.8291016,3.1742249,3.2655716c-1.0414734,0.3938141-2.0853119,0.7935638-3.1303406,1.2110977
	c-1.2336426-1.683197-3.6451569-4.6925507-5.9368591-5.9260406c-1.1802673-0.6371307-2.6546936-0.1945343-3.2904816,0.986908
	c-0.6358032,1.1814423-0.1945343,2.654541,0.986908,3.2903366c1.0296021,0.5540924,2.4340515,2.0971756,3.5894012,3.5597458
	c-1.0806274,0.4543076-2.1398926,0.9038696-3.1777954,1.3439484c-1.2431335-1.7033615-3.6404114-4.5098801-6.5323334-5.4137573
	c-1.2834549-0.3973694-2.6440125,0.3131561-3.0437546,1.5942383s0.3143387,2.6440048,1.5942307,3.0437546
	c1.097229,0.3416214,2.3510284,1.5289917,3.3533478,2.7329712c-1.2205811,0.508873-2.3913498,0.9845352-3.5099182,1.4234238
	c-1.3202286-1.5337372-4.0709915-4.4114304-6.8537903-5.3390274c-1.2692184-0.4270248-2.6487503,0.2657089-3.0722198,1.5373001
	c-0.4246521,1.2727737,0.2645187,2.6475677,1.5373001,3.0722198c0.9999542,0.3333206,2.272728,1.3795395,3.3877487,2.4862518
	c-0.5966568,0.1719971-1.1636505,0.3202667-1.6571045,0.4139786c-5.527626,1.0521469-20.0868835-0.9608154-27.084198-1.9275589
	l-1.5883026-0.2182541c-0.9264069-0.1269226-2.0153275-0.3202744-3.234726-0.5349731
	c-7.8098526-1.3795319-20.8840027-3.6914062-32.087532,3.3106461c-8.8126221,5.5082092-10.7051811,10.7818451-11.419117,15.8974228
	c-0.1190643,0.7570801-0.2098083,1.516243-0.2628899,2.2805862c-0.0266876,0.2775726-0.0532303,0.5551376-0.0790291,0.8318176
	c-0.1411552,1.5254364-0.2751961,2.9654617-0.5693703,4.4375229c-0.2609596,1.3036194-0.4424477,2.811409-0.6346092,4.4066849
	c-0.9857216,8.1989212-2.2074928,18.3621674-14.4097919,21.7510986c-1.9595795-0.7639008-6.7161884-2.2229156-10.7017746-0.2657013
	c-1.7448797,0.857605-4.0152407,2.7460175-4.915556,6.8609009c-1.1067114,5.0602722,0.0189791,9.7172394,1.0130033,13.8273773
	c1.096036,4.5371552,1.6855707,7.4219666,0.0616817,9.4799957c-0.8315172,1.0533295-0.6524029,2.5811462,0.4009304,3.4114685
	c0.4460068,0.3522949,0.9762316,0.5231171,1.5040846,0.5231171c0.7176428,0,1.4281683-0.3167114,1.9073887-0.9240417
	c0.9960995-1.2616577,1.5278072-2.6155396,1.8013706-4.0170288c0.0671692-0.1682892,0.1497574-0.3285675,0.1783733-0.5153961
	c0.4768467-3.0983124,2.0568466-6.4362488,3.4518032-9.3779907c0.7619762-1.6090546,1.4735394-3.1247101,1.9653625-4.498764
	c0.0385513-0.0932617,0.0986004-0.1721344,0.1258831-0.2720795c1.3095493-4.8016815,3.5834694-8.3009338,4.4956474-9.5808258
	c10.8304749-3.0182495,14.8182831-10.6227417,16.5768051-17.6872177c0.3548203,1.9911575,0.6323853,3.869194,0.6774635,5.5121994
	c0.0014801,0.0569458,0.0309868,0.1039429,0.0363235,0.1598511c-0.0040016,0.0843658-0.0400314,0.1596832-0.035141,0.2458344
	c0.1743698,3.0129089,0.7045975,12.1809387,0.4804077,16.1819458c-0.2194443,3.9025574-0.6096992,7.3021698-1.1933022,10.3945618
	c-0.2004662,1.0628204-0.4353333,2.0497284-0.6618958,3.0022278c-0.6986618,2.9358215-1.3593674,5.7091217-0.849308,9.3518982
	c0.2728233,1.9488983,0.571743,3.8942566,0.8706627,5.8395996c0.221817,1.4447632,0.4448166,2.8907318,0.6547737,4.3366852
	c0.7532272,5.1587372,0.9394608,9.4954224,1.1553459,14.5165558l0.1494598,3.3604736
	c0.0034103,0.0693817,0.0388451,0.12677,0.0478897,0.1943817c-0.0010376,0.0296478-0.0170517,0.0544128-0.0170517,0.0843658
	c0,2.89711,0.0437431,7.5869904,3.4374199,8.148056c0.0642052,0.0222473,0.1122437,0.0692444,0.1792641,0.0864563
	c2.1683502,0.5539398,4.5964737,0.7306824,6.8063393,0.7306824c3.7293701,0,6.8407364-0.5017548,7.0447578-0.5349731
	c0.6476593-0.1067505,1.2253342-0.4720917,1.6001663-1.0106201c0.3748322-0.5397186,0.5148087-1.20755,0.3890686-1.852829
	c-0.0569382-0.2931366-1.4388428-7.2321777-4.6759453-12.4123993c-3.7269974-5.9605865-3.1184845-14.3421783-2.5823288-21.7380524
	l0.0984535-1.3641205c0.6595192-9.3744354,2.8800621-16.1665344,6.9866409-21.3750763
	c2.4020233-3.0461273,5.3224182-7.3923187,8.0850449-11.7207031c5.6877594,0.0379486,13.1690369,2.6772156,20.4368057,5.2737732
	c6.0115891,2.1470032,11.6886826,4.1741943,16.3551331,4.7234039c2.407959,0.283493,5.163475,0.3926239,7.9889679,0.3926239
	c7.2748795,0,14.9922104-0.7271271,18.4499435-1.0972137c0.5041351,1.3427582,1.1482239,2.8788605,1.9963531,4.7579346
	c1.9488983,4.3141632,3.0212097,9.6186371,3.1884613,15.7656097c0.0154266,0.5763245,0.0189819,1.1470337,0.0237274,1.714035
	c0.0154266,1.8729858,0.030838,3.8088379,0.4234772,5.8538208c0.1897888,0.9916534,0.4270172,1.9761963,0.665451,2.9607239
	c0.4887085,2.0141449,0.9501343,3.9166412,0.9501343,5.8040161c0,4.8669281,0.1008148,15.7134094,0.1008148,15.7134094
	l0.0103912-0.0001526c-0.002533,0.0449371-0.0258026,0.0827484-0.0258026,0.1282654
	c0,3.8468018,0.0087433,5.0958557,0.9889832,7.0976868c0.2283325,0.6707916,0.7124481,1.2471313,1.4296417,1.5104675
	c4.0662537,1.4910278,7.272522,1.9465332,9.6733551,1.9465332c3.4387512,0,5.228714-0.9359131,5.5323792-1.1102753
	c1.0853577-0.6240845,1.5183105-1.9714355,0.9999542-3.1101837c-6.3627014-13.9995117-8.1621552-28.6321716-6.6248474-35.2926025
	c0.6832428-2.9619141,0.7733917-6.8537903,0.8682861-10.9745941c0.1565704-6.7233124,0.3499146-15.0906677,3.5988922-18.177124
	c4.2358704-4.0235443,5.7233429-9.1360016,7.1609955-14.0800323c0.2728271-0.9382706,0.5468292-1.8777313,0.8398285-2.8088837
	c1.523056-4.8455734,5.2453156-8.8062515,8.8453827-12.6376343l1.3000641-1.3878403
	c2.5479279-2.7448349,5.2014313-5.4730606,7.8845825-8.1585846c1.5040894,1.2502365,3.1872864,2.2988281,4.7684631,3.2430344
	l1.2644806,0.7627182c1.1067047,0.6832428,2.2325439,1.3380127,3.3592834,1.9914551
	c1.7069244,0.9916534,3.3177643,1.9277039,4.8799744,2.9691696c0.4649811,0.3096008,1.0058746,0.7117157,1.6072693,1.1563873
	c2.8290558,2.0924301,6.9569855,5.1468658,11.1835175,5.1468658c0.4756622,0,0.9525146-0.0391464,1.4293518-0.1221771
	c2.3035736-0.4021225,4.2370605-1.7555618,5.7482605-4.0210266
	C225.1203308,105.7049561,223.7751923,102.8592911,221.0967865,97.1928787z M201.9945831,90.2114334
	c-1.5430756,0-2.7940521-1.2509842-2.7940521-2.7940674c0-1.5430756,1.2509766-2.7940598,2.7940521-2.7940598
	s2.7940674,1.2509842,2.7940674,2.7940598C204.7886505,88.9604492,203.5376587,90.2114334,201.9945831,90.2114334z"/>
<path class="st0" d="M289.2064209,116.0212173c0,0.5065002-0.0166016,0.9489517-0.0474548,1.3285294
	c-0.0308228,0.3795776-0.0877686,0.7117081-0.1660461,0.9963913c-0.0783081,0.2846909-0.1826782,0.5385284-0.3084106,0.7591629
	c-0.1257324,0.221817-0.3487549,0.4910812-0.6642761,0.8066101c-0.3155212,0.3167114-0.9797974,0.7994843-1.9927979,1.4471436
	c-1.0130005,0.6488419-2.2703552,1.2810822-3.7720642,1.8978958c-1.501709,0.6168213-3.2264404,1.1387405-5.1717834,1.5657654
	c-1.945343,0.4270325-4.0733643,0.6405411-6.3816833,0.6405411c-3.9855652,0-7.5844727-0.6642609-10.794281-1.9927902
	c-3.2098389-1.3285294-5.9475403-3.2892914-8.2084198-5.8834839c-2.2608643-2.5930023-4.0021973-5.7957077-5.219223-9.6081085
	c-1.2170258-3.8112183-1.8267212-8.2001114-1.8267212-13.1666718c0-5.0923004,0.6571503-9.6318359,1.9690704-13.6174164
	c1.3119202-3.9855881,3.1552582-7.3614731,5.5276337-10.1300354c2.3723602-2.7673721,5.2120972-4.8787842,8.5168152-6.3342361
	c3.304718-1.4542618,6.9676514-2.182579,10.9840698-2.182579c1.7721863,0,3.4945068,0.1660652,5.1717834,0.4981956
	c1.6772766,0.3321342,3.2264404,0.7520447,4.6498413,1.2573586c1.4234314,0.5065002,2.6878967,1.0912933,3.7958069,1.7555542
	c1.1079102,0.6642685,1.874176,1.2099152,2.3012085,1.63694s0.7045898,0.7520447,0.8303223,0.9726715
	c0.1257324,0.221817,0.2301331,0.4827805,0.3084106,0.7828827c0.0782776,0.3012924,0.142334,0.6571503,0.1897888,1.0675659
	c0.0474548,0.4116058,0.071167,0.9015045,0.071167,1.470871c0,0.6334229-0.0308228,1.1707687-0.0948792,1.6132126
	c-0.0640564,0.443634-0.1589661,0.8149109-0.2870789,1.1150208c-0.1280823,0.3012924-0.2775574,0.5219193-0.453125,0.6642609
	c-0.1755371,0.1423416-0.3890686,0.2135162-0.6429138,0.2135162c-0.4459839,0-1.0651855-0.3084106-1.8623047-0.9252243
	c-0.7947388-0.6168213-1.8196106-1.2965012-3.0769653-2.0402451c-1.2549744-0.7425537-2.7827759-1.4234238-4.5786743-2.0402374
	c-1.7958984-0.6168213-3.9500122-0.9252243-6.4623413-0.9252243c-2.7353516,0-5.2239685,0.5456467-7.4658508,1.6369324
	c-2.2419128,1.0912933-4.158783,2.6973877-5.7482605,4.815918c-1.5895081,2.1197128-2.820755,4.7056046-3.696167,7.7576599
	c-0.8753967,3.0532455-1.3119202,6.5406342-1.3119202,10.4621658c0,3.8906937,0.422287,7.3306274,1.2644806,10.3198166
	c0.8421783,2.9891968,2.0497284,5.4884872,3.6249847,7.4967041c1.572876,2.0093994,3.5063477,3.5277176,5.7957153,4.5549545
	c2.2893372,1.0284195,4.8799438,1.542038,7.7742615,1.542038c2.4482727,0,4.5881653-0.3001022,6.4148865-0.9014969
	c1.8291016-0.6002121,3.3877563-1.2727814,4.6759338-2.0165176c1.2858276-0.7425537,2.3439026-1.415123,3.171875-2.0165176
	c0.825592-0.6002121,1.4779968-0.9015045,1.954834-0.9015045c0.2229919,0,0.4151611,0.0474472,0.5717468,0.1423416
	c0.1589355,0.094902,0.2870483,0.2775726,0.381958,0.5456467c0.0948792,0.2692642,0.1684265,0.6405411,0.2158813,1.1150208
	C289.1827087,114.692688,289.2064209,115.2940826,289.2064209,116.0212173z"/>
<path class="st1" d="M302.5747681,75.4180298c-0.213562-0.0949097-0.5100708-0.1660767-0.8896484-0.213501
	s-0.8659058-0.071167-1.4590454-0.071167c-0.5693359,0-1.0438232,0.0237427-1.4234009,0.071167
	s-0.6832275,0.1185913-0.9086304,0.213501c-0.2253418,0.0949097-0.3795776,0.213501-0.4602051,0.355896
	c-0.0854492,0.142334-0.1257935,0.3083496-0.1257935,0.4981689v47.5423584c0,0.1897583,0.0403442,0.3499146,0.1257935,0.4804077
	c0.0806274,0.1304932,0.2348633,0.2431641,0.4602051,0.3380737c0.2254028,0.0948486,0.5290527,0.1660156,0.9086304,0.213501
	c0.3795776,0.0474243,0.8540649,0.071167,1.4234009,0.071167c0.5931396,0,1.0794678-0.0237427,1.4590454-0.071167
	c0.3795776-0.0474854,0.6760864-0.1186523,0.8896484-0.213501c0.213501-0.0949097,0.3676758-0.2075806,0.4625854-0.3380737
	s0.142334-0.2906494,0.142334-0.4804077V76.2720947c0-0.1898193-0.0474243-0.355835-0.142334-0.4981689
	C302.9424438,75.6315308,302.788269,75.5129395,302.5747681,75.4180298z M319.2999878,90.9689331
	c-0.213562-0.0949097-0.5100708-0.1660767-0.8896484-0.213501s-0.8659058-0.071167-1.4590454-0.071167
	c-0.5693359,0-1.0438232,0.0237427-1.4234009,0.071167s-0.6832275,0.1185913-0.9086304,0.213501
	c-0.2253418,0.0949097-0.3795776,0.213501-0.4602051,0.355896c-0.0854492,0.142334-0.1257324,0.2965088-0.1257324,0.4625854
	v32.0270386c0,0.1897583,0.0402832,0.3499146,0.1257324,0.4804077c0.0806274,0.1304932,0.2348633,0.2431641,0.4602051,0.3380737
	c0.2254028,0.0948486,0.5290527,0.1660156,0.9086304,0.213501c0.3795776,0.0474243,0.8540649,0.071167,1.4234009,0.071167
	c0.5931396,0,1.0794678-0.0237427,1.4590454-0.071167c0.3795776-0.0474854,0.6760864-0.1186523,0.8896484-0.213501
	c0.213501-0.0949097,0.3676758-0.2075806,0.4625854-0.3380737s0.142334-0.2906494,0.142334-0.4804077V91.7874146
	c0-0.1660767-0.0474243-0.3202515-0.142334-0.4625854C319.6676636,91.1824341,319.5134888,91.0638428,319.2999878,90.9689331z
	 M316.9868774,77.4819946c-1.3996582,0-2.3604736,0.2490845-2.8823853,0.7473145
	c-0.5219727,0.4981689-0.7828979,1.4353027-0.7828979,2.8112793c0,1.3522339,0.2538452,2.2715454,0.7662964,2.7578735
	c0.5076904,0.4863281,1.4518433,0.7294922,2.8278198,0.7294922c1.3997192,0,2.3605347-0.2490845,2.8824463-0.7473145
	c0.5219116-0.4981689,0.7828979-1.4352417,0.7828979-2.8112183c0-1.3522949-0.2562256-2.2715454-0.7662964-2.7579346
	C319.3046875,77.7251587,318.362854,77.4819946,316.9868774,77.4819946z M368.5338135,77.4286499
	c-0.0379639-0.3203125-0.09729-0.5931396-0.1802979-0.8184814c-0.0830078-0.2254028-0.2016602-0.4092407-0.355835-0.5515747
	c-0.1542358-0.142334-0.3369141-0.2609863-0.550415-0.355896c-0.4981689-0.213501-1.145874-0.4091797-1.9406128-0.5871582
	c-0.7947388-0.1779175-1.7009888-0.2668457-2.7210693-0.2668457c-1.6843872,0-3.1624146,0.2431641-4.4292603,0.7294922
	c-1.2715454,0.4863281-2.3320312,1.239563-3.1860962,2.2597046c-0.8540649,1.0200806-1.501709,2.3189697-1.9382324,3.8966064
	c-0.4412231,1.5776367-0.6594849,3.4696045-0.6594849,5.6759033v3.4517822h-14.3765869v-3.0959473
	c0-2.6570435,0.355835-4.5905151,1.0675659-5.8004761c0.711731-1.2098999,1.9453125-1.8148193,3.7009277-1.8148193
	c0.6167603,0,1.1624146,0.0533447,1.6369019,0.1600952c0.4744873,0.1068115,0.9014893,0.2254028,1.2810669,0.355896
	s0.692749,0.2490845,0.9442139,0.355835c0.2467651,0.1067505,0.4673462,0.1601562,0.6571655,0.1601562
	c0.3084106,0,0.5219116-0.1719971,0.6405029-0.5159912c0.1186523-0.3439941,0.1779785-0.8955688,0.1779785-1.6547241
	c0-0.4507446-0.0189819-0.8363037-0.0521851-1.1565552c-0.0379639-0.3202515-0.1020508-0.5930786-0.1969604-0.8184814
	c-0.0948486-0.2253418-0.213501-0.4092407-0.355835-0.5515747s-0.3321533-0.2609253-0.5693359-0.355835
	c-0.49823-0.213501-1.1387939-0.4092407-1.9216309-0.5871582c-0.7828979-0.1779175-1.6962891-0.2669067-2.7401123-0.2669067
	c-1.6843872,0-3.1623535,0.2431641-4.4315796,0.7294922s-2.3296509,1.239563-3.1837158,2.2597046
	s-1.4946289,2.3189697-1.9216309,3.8966064c-0.427063,1.5776367-0.640564,3.4696045-0.640564,5.6759033v3.0247803h-4.5193481
	c-0.1898193,0-0.355835,0.0415039-0.49823,0.1245728c-0.142334,0.0830078-0.2609253,0.2253418-0.355835,0.427002
	s-0.1660767,0.456665-0.213501,0.7650757c-0.0474854,0.3084106-0.071167,0.6879883-0.071167,1.1387329
	c0,0.8540649,0.0949097,1.4708862,0.284668,1.8504639c0.1898193,0.3795776,0.4744873,0.569397,0.8540649,0.569397h4.5193481
	v28.0770264c0,0.1897583,0.0474854,0.3499146,0.142334,0.4804077c0.0949097,0.1304932,0.2538452,0.2431641,0.479248,0.3380737
	c0.2253418,0.0948486,0.5290527,0.1660156,0.9086304,0.213501c0.3795776,0.0474243,0.8540649,0.071167,1.4234009,0.071167
	c0.569397,0,1.0438232-0.0237427,1.4234009-0.071167c0.3795776-0.0474854,0.6809082-0.1186523,0.9086304-0.213501
	c0.2230225-0.0949097,0.3843384-0.2075806,0.479248-0.3380737s0.142334-0.2906494,0.142334-0.4804077V95.7374268h14.3765869
	v28.0770264c0,0.1897583,0.0474243,0.3499146,0.142334,0.4804077s0.2538452,0.2431641,0.479187,0.3380737
	c0.2254028,0.0948486,0.5290527,0.1660156,0.9086304,0.213501c0.3795776,0.0474243,0.8540649,0.071167,1.4234619,0.071167
	c0.5693359,0,1.0438232-0.0237427,1.4234009-0.071167c0.3795776-0.0474854,0.6808472-0.1186523,0.9086304-0.213501
	c0.2230225-0.0949097,0.3843384-0.2075806,0.479187-0.3380737c0.0949097-0.1304932,0.142334-0.2906494,0.142334-0.4804077
	V95.7374268h7.15271c0.3795776,0,0.6690063-0.1898193,0.8706665-0.569397s0.3037109-0.9963989,0.3037109-1.8504639
	c0-0.4507446-0.0237427-0.8303223-0.071228-1.1387329c-0.0474243-0.3084106-0.1233521-0.5634155-0.2324829-0.7650757
	c-0.1043701-0.2016602-0.2301025-0.3439941-0.3724365-0.427002c-0.142334-0.0830688-0.3084106-0.1245728-0.49823-0.1245728h-7.15271
	v-3.5229492c0-2.6571045,0.3606567-4.5905762,1.0865479-5.8004761c0.7212524-1.2098999,1.9619751-1.8148804,3.7175293-1.8148804
	c0.6168213,0,1.1624756,0.0534058,1.6369629,0.1601562c0.4744263,0.1067505,0.8943481,0.2254028,1.2644653,0.355835
	c0.3653564,0.1304932,0.6737671,0.2431641,0.9252319,0.3380737c0.2467041,0.0949097,0.4673462,0.142334,0.6571045,0.142334
	c0.3084106,0,0.5219727-0.1660767,0.640564-0.4981689c0.1186523-0.3321533,0.1779175-0.8778076,0.1779175-1.6369629
	C368.5859985,78.1343994,368.5670166,77.7489014,368.5338135,77.4286499z"/>
<path class="st2" d="M295.4220276,170.8431854c0,5.3141174-0.6808472,9.9568634-2.0402222,13.9258423
	s-3.3450623,7.2594604-5.9546509,9.8690643c-2.6096191,2.6096039-5.8123169,4.5620728-9.6081238,5.8597565
	c-3.7958069,1.297699-8.3199158,1.945343-13.5699768,1.945343h-13.0005951c-0.7283173,0-1.4163055-0.2443542-2.0639648-0.7354279
	c-0.6476593-0.4910889-0.9726715-1.3522491-0.9726715-2.5858917V144.366333c0-1.2336426,0.3250122-2.0948181,0.9726715-2.5858917
	c0.6476593-0.4898987,1.3356476-0.7354431,2.0639648-0.7354431h13.9021149c5.3140869,0,9.8049927,0.6879883,13.4750671,2.0639648
	c3.6700439,1.3759766,6.7446594,3.3533478,9.2285156,5.9309387c2.4838867,2.5787659,4.3651733,5.7019958,5.6462708,9.3720551
	C294.7814941,162.082016,295.4220276,166.2241821,295.4220276,170.8431854z M286.8340454,171.1753235
	c0-3.3213196-0.4104309-6.4125214-1.2336426-9.2759705c-0.8232117-2.8634644-2.1113892-5.3378448-3.8669434-7.4255371
	c-1.7555847-2.0888672-3.9784851-3.7174988-6.6663818-4.8882751c-2.6878967-1.1695709-6.1515503-1.7555542-10.3909912-1.7555542
	h-8.3033142v47.780777h8.3981934c3.9215393,0,7.2286377-0.4910736,9.9165344-1.470871
	c2.6878967-0.9797821,4.9345398-2.4838715,6.7375488-4.5075073c1.8029785-2.0236359,3.1552429-4.5620728,4.0567322-7.6153107
	C286.3833008,178.9638214,286.8340454,175.350708,286.8340454,171.1753235z"/>
<path class="st3" d="M331.1499634,172.515686c-1.3048096-1.4945679-2.9370117-2.6333008-4.8918457-3.4161987
	c-1.9595337-0.7828979-4.2536621-1.1743164-6.8869629-1.1743164c-2.7282715,0-5.1124878,0.4389038-7.15271,1.3166504
	c-2.0402222,0.8778076-3.7435913,2.1113892-5.1053467,3.7009277c-1.3665161,1.5894775-2.3865967,3.482605-3.0603638,5.677063
	c-0.6785278,2.194458-1.0153809,4.5952759-1.0153809,7.204895c0,2.7045288,0.3202515,5.1243286,0.9608154,7.2594604
	s1.6132202,3.9500122,2.9180298,5.4445801c1.3048096,1.4946289,2.9346313,2.6333618,4.894165,3.4162598
	c1.954834,0.7828369,4.2513428,1.1743164,6.8846436,1.1743164c2.7045288,0,5.081604-0.4436646,7.1361084-1.3356323
	c2.0497437-0.8872681,3.7578125-2.1280518,5.1243286-3.7175293c1.3617554-1.5894775,2.3889771-3.4802856,3.0769653-5.677124
	c0.6879883-2.1920166,1.0319824-4.5952759,1.0319824-7.204895c0-2.6807251-0.3273926-5.0886841-0.977417-7.223877
	C333.4321899,175.8251343,332.4547729,174.0103149,331.1499634,172.515686z M328.4051514,190.6643677
	c-0.3843384,1.5420532-0.9821777,2.8705444-1.7958984,3.9855957c-0.8137207,1.1149902-1.8552246,1.980896-3.1243896,2.5977173
	c-1.2692261,0.6168213-2.763855,0.9252319-4.4885864,0.9252319c-1.8907471,0-3.4707642-0.336853-4.7399902-1.0153809
	c-1.2692261-0.6737671-2.2798462-1.5870972-3.0342407-2.7377319c-0.7520752-1.1505737-1.2905884-2.4981079-1.6156006-4.0401611
	c-0.3226318-1.5419922-0.4839478-3.1907959-0.4839478-4.9463501c0-1.8267212,0.1968994-3.5111084,0.5930786-5.0531616
	c0.3937988-1.5420532,0.9987793-2.8753052,1.8125-4.0045776c0.8137207-1.1245117,1.8480835-1.9975586,3.1054077-2.6143799
	c1.2573853-0.6167603,2.7590942-0.9251709,4.5075073-0.9251709c1.8908081,0,3.4708252,0.336853,4.7400513,1.0153198
	c1.2668457,0.6737671,2.2727051,1.5942383,3.0152588,2.7567139s1.2739868,2.5147095,1.598999,4.0567627
	c0.3226318,1.5420532,0.4839478,3.1789551,0.4839478,4.9108276
	C328.979248,187.4260864,328.7871094,189.1223145,328.4051514,190.6643677z M368.763916,171.9107666
	c-0.9014893-1.2099609-2.0805664-2.1754761-3.5419312-2.8990479c-1.456604-0.7235718-3.2548828-1.0865479-5.3900146-1.0865479
	c-1.8267212,0-3.6368408,0.4697266-5.4279785,1.4044189c-1.7911377,0.9394531-3.5870361,2.4151001-5.3900757,4.4315796v-4.2346802
	c0-0.1897583-0.0426636-0.3486938-0.1233521-0.4815674c-0.0853882-0.1281128-0.2206421-0.2467041-0.4104004-0.355835
	c-0.1898193-0.1044312-0.4578857-0.1755981-0.7994995-0.213562c-0.3463745-0.0332031-0.7781372-0.0521851-1.3000488-0.0521851
	c-0.5456543,0-0.9845581,0.0189819-1.3166504,0.0521851c-0.3321533,0.0379639-0.6049805,0.1091309-0.8184814,0.213562
	c-0.213501,0.1091309-0.355896,0.2277222-0.427063,0.355835c-0.071167,0.1328735-0.1067505,0.2918091-0.1067505,0.4815674
	v32.0270386c0,0.1898193,0.0403442,0.3511353,0.1257324,0.4816284c0.0806885,0.1304321,0.2348633,0.2419434,0.4602661,0.336853
	c0.2253418,0.0949097,0.5290527,0.1660767,0.9086304,0.213501c0.3795776,0.0474854,0.8540649,0.071167,1.4234009,0.071167
	c0.5930786,0,1.0794067-0.0236816,1.4589844-0.071167c0.3795776-0.0474243,0.6761475-0.1185913,0.8896484-0.213501
	c0.213562-0.0949097,0.3677368-0.2064209,0.4626465-0.336853c0.0949097-0.1304932,0.142334-0.2918091,0.142334-0.4816284
	v-22.3833008c1.6132202-2.0165405,3.1552734-3.5466919,4.6260986-4.5905762
	c1.4708862-1.0438232,2.9417725-1.5657349,4.4126587-1.5657349c1.1387329,0,2.1398315,0.213501,3.0081177,0.6405029
	c0.8635864,0.427063,1.5705566,1.0438843,2.1162109,1.8504639c0.5455933,0.8066406,0.9607544,1.767395,1.2454834,2.8824463
	c0.284668,1.1149902,0.427002,2.5858765,0.427002,4.4125977v18.7536011c0,0.1898193,0.0474854,0.3511353,0.142334,0.4816284
	c0.0949097,0.1304321,0.2491455,0.2419434,0.4626465,0.336853s0.5100708,0.1660767,0.8896484,0.213501
	c0.3795776,0.0474854,0.8659058,0.071167,1.4589844,0.071167c0.569397,0,1.0438232-0.0236816,1.4234009-0.071167
	c0.3795776-0.0474243,0.6761475-0.1185913,0.8896484-0.213501s0.3677368-0.2064209,0.4626465-0.336853
	c0.0948486-0.1304932,0.142334-0.2918091,0.142334-0.4816284v-19.536499c0-2.2774658-0.194519-4.2275391-0.5883789-5.8549805
	C370.3131104,174.5393066,369.6654663,173.1206665,368.763916,171.9107666z M407.4454956,199.845459l-13.024353-16.9031982
	l11.6008911-11.6008911c0.355896-0.3795776,0.6097412-0.711731,0.763916-0.9963989
	c0.1542358-0.284668,0.2324829-0.5693359,0.2324829-0.8540649c0-0.213501-0.0521851-0.3842773-0.1613159-0.5171509
	c-0.1043701-0.1281128-0.284668-0.2348633-0.5313721-0.3179321c-0.2515259-0.0830078-0.5765381-0.142334-0.9797974-0.1802979
	c-0.4033203-0.0332031-0.9014893-0.0521851-1.4946289-0.0521851c-0.5693359,0-1.0556641,0.0189819-1.4589844,0.0521851
	c-0.4033203,0.0379639-0.7543945,0.1091309-1.048584,0.213562c-0.2989502,0.1091309-0.5527954,0.239563-0.7662964,0.3937988
	c-0.213501,0.1541748-0.4151611,0.3487549-0.6049194,0.5859375l-12.0991211,13.309021v-28.9666748
	c0-0.1897583-0.0474854-0.355835-0.142334-0.4981689c-0.0949097-0.142334-0.2491455-0.2609863-0.4626465-0.355835
	c-0.213501-0.0949097-0.5100708-0.1660767-0.8896484-0.213562c-0.3795776-0.0474243-0.8659058-0.071167-1.4589844-0.071167
	c-0.569397,0-1.0438232,0.0237427-1.4234009,0.071167c-0.3795776,0.0474854-0.6832886,0.1186523-0.9086304,0.213562
	c-0.2254028,0.0948486-0.3795776,0.213501-0.4602661,0.355835c-0.0853882,0.142334-0.1257324,0.3084106-0.1257324,0.4981689
	v47.5423584c0,0.1898193,0.0403442,0.3511353,0.1257324,0.4816284c0.0806885,0.1304321,0.2348633,0.2419434,0.4602661,0.336853
	c0.2253418,0.0949097,0.5290527,0.1660767,0.9086304,0.213501c0.3795776,0.0474854,0.8540039,0.071167,1.4234009,0.071167
	c0.5930786,0,1.0794067-0.0236816,1.4589844-0.071167c0.3795776-0.0474243,0.6761475-0.1185913,0.8896484-0.213501
	s0.3677368-0.2064209,0.4626465-0.336853c0.0948486-0.1304932,0.142334-0.2918091,0.142334-0.4816284v-17.7572021
	l13.522522,17.7216187c0.142334,0.213501,0.3036499,0.3985596,0.479187,0.550415
	c0.1802979,0.1565552,0.4104614,0.2752075,0.6951294,0.355835c0.284668,0.0830688,0.6334229,0.142334,1.0509644,0.1802979
	c0.4127808,0.0332031,0.9418335,0.0521851,1.5823975,0.0521851c0.6167603,0,1.1268311-0.0236816,1.5301514-0.071167
	c0.4033203-0.0474243,0.7164307-0.1185913,0.9442139-0.213501c0.2230225-0.0949097,0.3843384-0.213501,0.479187-0.355835
	c0.0949097-0.142334,0.142395-0.3084106,0.142395-0.49823c0-0.213501-0.0664673-0.4459839-0.1945801-0.692749
	C407.972168,200.5737305,407.7539062,200.2487183,407.4454956,199.845459z M436.8035889,172.3899536
	c-1.1387329-1.3617554-2.5930176-2.4483032-4.3604126-3.2548828s-3.9072876-1.2098999-6.4219971-1.2098999
	c-2.3486938,0-4.4719238,0.40802-6.369812,1.2288818c-1.8979492,0.8161011-3.5182495,1.9927979-4.8586426,3.5205688
	c-1.3403931,1.5325928-2.3652344,3.3948975-3.0769653,5.5893555c-0.711731,2.194397-1.0675659,4.6664429-1.0675659,7.418396
	c0,2.8942871,0.3439941,5.4327393,1.0319824,7.6152954c0.6879883,2.1826172,1.7080688,3.9974365,3.0603638,5.4446411
	c1.3522339,1.4471436,3.0176392,2.5383911,5.0009766,3.2738647c1.9785156,0.7354126,4.2868652,1.1031494,6.920166,1.1031494
	c1.5183105,0,2.9465332-0.1138916,4.2868652-0.3392334c1.3403931-0.2254028,2.5218506-0.479248,3.5419922-0.763916
	c1.0200806-0.284729,1.8504639-0.5741577,2.4909668-0.8730469c0.640564-0.2941895,1.0249023-0.5076904,1.1553345-0.640564
	c0.1304932-0.1281128,0.2372437-0.265686,0.3226929-0.40802c0.0806274-0.142334,0.142334-0.3036499,0.1755371-0.479248
	c0.0379639-0.1802979,0.0664062-0.3795776,0.0901489-0.6072998c0.0237427-0.2230225,0.0355835-0.4910889,0.0355835-0.7994995
	c0-0.427002-0.0189819-0.7875977-0.0545654-1.0841675s-0.0877686-0.5290527-0.1589355-0.6951294
	c-0.0735474-0.1660767-0.1732178-0.2894287-0.3060303-0.3724365c-0.1304932-0.0830688-0.2799683-0.1257324-0.4460449-0.1257324
	c-0.2870483,0-0.7093506,0.1257324-1.2692261,0.3724365c-0.5598755,0.2514648-1.2763062,0.5290527-2.1469727,0.8374634
	c-0.8682861,0.3084106-1.9002686,0.5859985-3.0911865,0.8374634c-1.1932983,0.2467041-2.5526733,0.3724365-4.078125,0.3724365
	c-1.9310913,0-3.5632935-0.2728271-4.8989258-0.8184814c-1.333313-0.5455933-2.4198608-1.3284912-3.2525635-2.3486328
	c-0.835083-1.0201416-1.430542-2.2418823-1.7887573-3.6652832c-0.3582153-1.4234619-0.5361328-3.0247803-0.5361328-4.8040771
	h21.0927734c0.595459,0,1.1244507-0.194519,1.5894775-0.5883789c0.4649658-0.3890381,0.6974487-1.048584,0.6974487-1.9738159
	v-1.0675659c0-2.0876465-0.2680664-4.0496216-0.7994995-5.8881836
	C438.7774048,175.3577881,437.9423218,173.7564697,436.8035889,172.3899536z M416.7333374,182.4085083
	c0.0474243-1.3048096,0.2751465-2.5550537,0.6808472-3.7554932c0.4057007-1.1956787,0.977417-2.2466431,1.7175903-3.1481323
	s1.6583252-1.625061,2.7567139-2.1707153s2.3747559-0.8184814,3.8313599-0.8184814
	c2.8397217,0,4.9819946,0.8778076,6.4267578,2.6333618s2.1304321,4.175354,2.0592651,7.2594604H416.7333374z
	 M473.6347046,168.5134888c-0.427063-0.0592651-0.9727173-0.0901489-1.6369629-0.0901489
	c-0.7591553,0-1.3403931,0.0308838-1.7437134,0.0901489c-0.4032593,0.0593262-0.7069702,0.1542358-0.90625,0.284729
	c-0.2039795,0.1304321-0.3748169,0.4198608-0.5171509,0.8706055l-8.8252563,25.835144h-0.1067505l-9.1454468-25.692749
	c-0.1186523-0.3084106-0.2325439-0.5527954-0.3369141-0.7283325c-0.1091309-0.1802979-0.2799072-0.3155518-0.5171509-0.4104004
	c-0.2372437-0.0949097-0.5575562-0.1589966-0.9608154-0.1969604c-0.4033203-0.0332031-0.9608154-0.0521851-1.6725464-0.0521851
	s-1.2810669,0.0308838-1.7080688,0.0901489c-0.427063,0.0593262-0.7354736,0.1708374-0.9252319,0.3369141
	c-0.1898193,0.1660767-0.284729,0.3914185-0.284729,0.6760864c0,0.284729,0.0949097,0.6761475,0.284729,1.1743164
	l11.4229736,30.6036377c0.071167,0.2372437,0.2015991,0.4625854,0.3914185,0.6761475
	c0.1898193,0.213501,0.3914185,0.3676758,0.6049805,0.4625854l-4.4126587,11.1383057
	c-0.142334,0.3321533-0.2016602,0.6168213-0.1779175,0.8540649s0.1352539,0.427002,0.3369141,0.5693359
	c0.2015991,0.142334,0.4934082,0.2420044,0.8729858,0.3013306c0.3795776,0.0592651,0.8778076,0.0901489,1.4946289,0.0901489
	c1.1861572,0,2.0687256-0.1020508,2.6522827-0.3037109c0.5788574-0.2015991,0.9418335-0.4910278,1.0841675-0.8706665
	l4.2703247-11.7788086l11.4941406-31.8491211c0.142334-0.427002,0.213501-0.7828369,0.213501-1.0675659
	c0-0.284668-0.1020508-0.5100098-0.3036499-0.6760864C474.3748779,168.6843262,474.0617065,168.5728149,473.6347046,168.5134888z
	 M500.307251,189.2764893c-0.4649658-0.9963989-1.074646-1.8504028-1.8338013-2.5621338
	c-0.7592163-0.711731-1.6322021-1.3166504-2.6167603-1.8148804c-0.9845581-0.4981689-1.980896-0.9489136-2.9891968-1.3522339
	c-1.0082397-0.4033203-1.9974976-0.7947388-2.9702148-1.1743164c-0.9726562-0.3795776-1.838562-0.8066406-2.5977173-1.2810669
	c-0.7591553-0.4744873-1.3759766-1.0249023-1.8504639-1.6559448c-0.4744873-0.6262817-0.711731-1.4044189-0.711731-2.3296509
	c0-0.6643066,0.1257324-1.2811279,0.3724976-1.8504639c0.2514648-0.569397,0.6168213-1.0604858,1.1055298-1.475647
	c0.4839478-0.4151611,1.1078491-0.7354126,1.8670654-0.9631348c0.7591553-0.2230225,1.6369019-0.3369141,2.6333008-0.3369141
	c1.1149902,0,2.1043091,0.1304932,2.9725952,0.3914795c0.8635254,0.2609253,1.617981,0.5408936,2.2584839,0.8374023
	c0.640564,0.2965698,1.1624756,0.5741577,1.5657959,0.835083c0.4032593,0.2609863,0.7116699,0.3914795,0.9252319,0.3914795
	c0.142334,0,0.2727661-0.0403442,0.3914185-0.1257324c0.1185913-0.0806885,0.2182617-0.2182617,0.3012695-0.4080811
	c0.0830688-0.1897583,0.142334-0.4317627,0.1802979-0.7307129c0.0332031-0.2941284,0.0521851-0.6452637,0.0521851-1.048584
	c0-0.3795776-0.0189819-0.6998291-0.0521851-0.9608154c-0.0379639-0.2609253-0.071167-0.4815674-0.1091309-0.6571045
	c-0.0332031-0.1802979-0.0948486-0.3392944-0.1755371-0.4816284c-0.0853882-0.142334-0.2514648-0.3084106-0.4981689-0.4981689
	c-0.2515259-0.1898193-0.6192017-0.4104004-1.1055298-0.6571655c-0.4863892-0.2514648-1.0723267-0.4815674-1.7603149-0.6950684
	c-0.6879883-0.213562-1.4590454-0.3914795-2.3130493-0.5338135c-0.8540649-0.142334-1.7081299-0.213501-2.5621948-0.213501
	c-1.9453125,0-3.6463013,0.2609253-5.1077271,0.7828979c-1.456604,0.5219116-2.673645,1.21698-3.6463013,2.0829468
	c-0.9727173,0.8659058-1.7033691,1.8741455-2.1896973,3.0223999c-0.4863281,1.1529541-0.7283325,2.3557129-0.7283325,3.6130981
	c0,1.4234009,0.2301025,2.6452026,0.6950684,3.6653442c0.4602661,1.0200806,1.0723267,1.8978882,1.8314819,2.6333008
	s1.617981,1.359375,2.5811768,1.8694458c0.9584351,0.5100708,1.9429321,0.9655151,2.9512329,1.3688354
	c1.0082397,0.4033203,1.9880371,0.7900391,2.9369507,1.1553345c0.9489746,0.3701172,1.8030396,0.7900391,2.5621948,1.2645264
	c0.7591553,0.4744263,1.3712158,1.0200806,1.8314819,1.6369019c0.4649658,0.6168213,0.6950684,1.3759766,0.6950684,2.2774658
	c0,0.8778076-0.1589355,1.6369629-0.4815674,2.2774658c-0.3178711,0.640564-0.7757568,1.1696167-1.3688354,1.5823975
	c-0.5931396,0.4175415-1.2929688,0.7307129-2.0995483,0.9442139c-0.8066406,0.213501-1.7081299,0.3202515-2.7045288,0.3202515
	c-1.3285522,0-2.5028687-0.1589355-3.5229492-0.4815674c-1.0201416-0.3179321-1.9050293-0.6690063-2.6499634-1.048584
	c-0.7496948-0.3795776-1.3783569-0.7307129-1.8884277-1.048584c-0.5100708-0.3226929-0.8943481-0.4816284-1.1553345-0.4816284
	c-0.1660767,0-0.3154907,0.0427246-0.4436035,0.1257324c-0.1328735,0.0830688-0.2325439,0.2182617-0.3037109,0.4080811
	c-0.071167,0.1897583-0.1304321,0.4389038-0.1779175,0.7473145c-0.0474243,0.3083496-0.071167,0.6879883-0.071167,1.1387329
	c0,0.7354126,0.0593262,1.3166504,0.1779175,1.7436523c0.1186523,0.427063,0.3084106,0.7591553,0.569397,0.9963989
	c0.2609253,0.2372437,0.6761475,0.5053101,1.2454834,0.8018799c0.569397,0.2965698,1.2644653,0.5812378,2.0805664,0.8540649
	c0.8208618,0.2704468,1.7460938,0.4981689,2.7756958,0.6737671c1.0343628,0.1802979,2.1185303,0.2680664,3.2572632,0.2680664
	c1.8504639,0,3.5466919-0.2254028,5.0887451-0.6761475s2.8705444-1.1149902,3.9855957-1.9927979
	c1.1149902-0.8777466,1.9738159-1.9572144,2.5811157-3.2382812C500.6963501,195.9310303,501,194.4719849,501,192.835083
	C501,191.4591064,500.7675171,190.2728882,500.307251,189.2764893z"/>
<g>
</g>
<g>
</g>
<g>
</g>
<g>
</g>
<g>
</g>
<g>
</g>
</svg>
