<?xml version="1.0" encoding="utf-8"?>
<!-- Generator: Adobe Illustrator 28.0.0, SVG Export Plug-In . SVG Version: 6.00 Build 0)  -->
<svg version="1.1" id="Layer_1" xmlns="http://www.w3.org/2000/svg" xmlns:xlink="http://www.w3.org/1999/xlink" x="0px" y="0px"
	 width="256px" height="256px" viewBox="0 0 256 256" style="enable-background:new 0 0 256 256;" xml:space="preserve">
<path d="M231.5764313,100.6412125c-1.0936584-2.3130646-2.4542236-5.1907501-3.9630432-9.2546234
	c-2.1339569-5.743515-5.6130371-11.2486115-10.3388062-16.3622589c-1.2110901-1.3095474-2.5028534-2.4767532-3.7898712-3.6095657
	c1.1660309-0.9596252,1.7662354-1.3724136,1.7982635-1.3949509c1.118576-0.7342529,1.4317322-2.2359619,0.6998596-3.3569107
	c-0.7318878-1.1245041-2.2383423-1.4435883-3.3616638-0.7069702c-0.1103058,0.0711746-1.039093,0.7081528-2.8041382,2.1968231
	c-0.4519348-0.4187241-0.8599854-0.8718491-1.2870178-1.3059921c1.1624603-2.0058441,4.0792999-3.8017273,5.1266937-4.3200912
	c1.2004242-0.5942802,1.6950684-2.0509186,1.1019745-3.2525253c-0.5930939-1.199234-2.0378723-1.6962471-3.2465973-1.1078987
	c-0.4993744,0.2443542-4.0282898,2.0663376-6.3271179,5.0057068c-0.4365082-0.4851494-0.9014893-0.9643669-1.3593597-1.4471474
	c0.6179962-1.0011406,1.3083649-2.3759308,1.733017-3.2548943c0.5836029-1.208725,0.0771027-2.6606178-1.1304321-3.2442207
	c-1.2099152-0.5847893-2.6618042-0.078289-3.2442322,1.1304359c-0.292984,0.6061401-0.6512146,1.3083649-0.9691162,1.9002724
	c-0.7603455-0.6464729-1.5372925-1.2715912-2.3439026-1.8291016c-7.8300171-5.4196854-11.2130127-9.159729-11.7313843-10.7148209
	c-0.3155212-0.9442024-1.1743164-1.6013527-2.1695251-1.6571007c-0.9560699-0.0521927-1.9204407,0.5005684-2.3403473,1.4056282
	c-0.1352234,0.2929878-3.27388,7.2997932,0.7318726,18.3467445c0.7259521,2.002285,1.540863,3.6522713,2.3854218,5.0258751
	c-0.7045898,0.3807678-1.5384827,0.826767-2.4909973,1.3297119c-0.9358978-1.9441605-2.4221802-4.0994568-3.4529877-5.4908524
	c-0.7971039-1.0782471-2.318985-1.3024368-3.3972321-0.5076904c-1.0782471,0.7971191-1.3059845,2.3189926-0.5076904,3.3972397
	c1.2834625,1.7353897,2.5111542,3.6961517,3.0674744,4.8206558c-1.1802521,0.5978394-2.4257507,1.2146606-3.7163086,1.8409653
	c-0.5243073-1.0735016-1.5230713-2.7804184-3.47435-5.7079315c-0.7449188-1.1173859-2.2525635-1.4198608-3.3687592-0.6737518
	c-1.1162109,0.7437363-1.4174957,2.2527161-0.6737671,3.3687668c1.2134705,1.8208008,2.6119843,4.0675812,3.1291656,5.078064
	c-0.9691162,0.4412613-1.9394073,0.8706665-2.9073486,1.2871628c-1.2241364-2.3605118-3.5099182-4.8764114-4.3366852-5.743515
	c-0.9216766-0.9726715-2.4637146-1.008255-3.434021-0.0843658c-0.9714813,0.9252243-1.0094452,2.4625244-0.0842133,3.4340057
	c1.3368378,1.4032593,2.6499329,3.088829,3.3367462,4.2204514c-0.9714966,0.3653488-1.9275513,0.7105255-2.8338013,1.0046997
	h-0.0011902c-1.3771667-1.6108398-3.8242645-4.3853302-5.180069-5.4018936
	c-1.0723114-0.8077927-2.5965729-0.5847855-3.4008026,0.4851532c-0.8054199,1.0735016-0.5883484,2.5965652,0.4851532,3.400795
	c0.6037598,0.453125,1.8979034,1.8291016,3.1742401,3.2655716c-1.0414734,0.3938141-2.0853271,0.7935638-3.1303558,1.2110977
	c-1.2336273-1.683197-3.6451416-4.6925507-5.9368591-5.9260406c-1.1802521-0.6371307-2.6546936-0.1945343-3.2904816,0.986908
	c-0.6358032,1.1814423-0.1945343,2.654541,0.986908,3.2903366c1.0296021,0.5540924,2.4340515,2.0971756,3.5894012,3.5597458
	c-1.0806122,0.4543076-2.1398773,0.9038696-3.1777954,1.3439484c-1.2431183-1.7033691-3.6404114-4.5098801-6.5323334-5.4137573
	c-1.2834473-0.3973694-2.6440125,0.3131561-3.0437469,1.5942383c-0.3997498,1.2810745,0.3143311,2.6440048,1.5942383,3.0437469
	c1.0972137,0.341629,2.3510132,1.5289993,3.3533478,2.7329788c-1.2205963,0.508873-2.3913574,0.9845352-3.5099335,1.4234238
	c-1.3202209-1.5337372-4.0709839-4.4114304-6.853775-5.3390274c-1.2692261-0.4270248-2.6487579,0.2657089-3.0722275,1.5373001
	c-0.4246597,1.2727737,0.2645187,2.6475677,1.5372925,3.0722198c0.9999619,0.3333206,2.272728,1.3795395,3.3877487,2.4862442
	c-0.5966492,0.1719971-1.1636505,0.3202744-1.6571045,0.4139862c-5.527626,1.0521469-20.0868759-0.9608154-27.0841904-1.9275589
	l-1.5883026-0.2182541c-0.9264145-0.1269226-2.0153275-0.3202744-3.2347336-0.5349731
	c-7.809845-1.3795319-20.8839951-3.6914139-32.0875244,3.3106461c-8.8126259,5.5082092-10.7051849,10.7818451-11.4191208,15.8974228
	c-0.1190643,0.7570801-0.2098083,1.516243-0.2628899,2.2805862c-0.0266876,0.2775726-0.0532303,0.5551376-0.0790291,0.8318176
	c-0.1411552,1.5254364-0.2751961,2.9654617-0.5693703,4.4375229c-0.2609596,1.3036194-0.4424477,2.811409-0.6346092,4.4066772
	c-0.9857216,8.1989212-2.2074928,18.362175-14.40979,21.7511063c-1.9595795-0.7639008-6.7161884-2.2229156-10.7017746-0.2657013
	c-1.7448807,0.857605-4.0152416,2.7460175-4.915556,6.8609009c-1.1067123,5.0602722,0.0189781,9.7172394,1.0130024,13.8273621
	c1.0960369,4.5371704,1.6855717,7.4219818,0.0616817,9.480011c-0.8315163,1.0533295-0.6524029,2.5811462,0.4009304,3.4114685
	c0.4460068,0.3522949,0.9762325,0.5231018,1.5040855,0.5231018c0.7176418,0,1.4281673-0.3167114,1.9073868-0.9240265
	c0.9961014-1.2616577,1.5278091-2.6155396,1.8013725-4.0170288c0.0671673-0.1682892,0.1497555-0.3285675,0.1783733-0.5153961
	c0.4768467-3.0983124,2.0568466-6.4362488,3.4518032-9.3779907c0.7619743-1.6090546,1.4735374-3.1247101,1.9653625-4.498764
	c0.0385513-0.0932617,0.0986023-0.1721344,0.1258812-0.2720795c1.3095512-4.8016815,3.5834694-8.3009338,4.4956474-9.5808258
	c10.8304749-3.0182495,14.8182869-10.6227417,16.5768089-17.6872253c0.3548164,1.9911652,0.6323853,3.8692017,0.6774597,5.512207
	c0.0014839,0.0569458,0.0309868,0.1039429,0.0363274,0.1598358c-0.0040054,0.0843811-0.0400352,0.1596985-0.035141,0.2458496
	c0.1743698,3.0129089,0.7045937,12.1809387,0.4804039,16.1819458c-0.2194443,3.9025574-0.6096992,7.3021698-1.1933022,10.3945618
	c-0.2004662,1.0628204-0.4353294,2.0497284-0.6618919,3.0022278c-0.6986656,2.9358063-1.3593712,5.7091217-0.8493118,9.3518982
	c0.2728233,1.9488983,0.571743,3.8942413,0.8706627,5.8395996c0.221817,1.4447632,0.4448204,2.8907318,0.6547737,4.3366852
	c0.753231,5.1587372,0.9394608,9.4954224,1.1553459,14.5165558l0.1494598,3.3604584
	c0.0034103,0.069397,0.0388489,0.1267853,0.0478935,0.194397c-0.0010376,0.0296478-0.0170517,0.0544128-0.0170517,0.0843658
	c0,2.89711,0.0437393,7.5869904,3.4374199,8.148056c0.0642014,0.0222473,0.1122437,0.0692444,0.1792603,0.086441
	c2.1683502,0.5539551,4.5964699,0.7306976,6.8063393,0.7306976c3.7293701,0,6.8407364-0.5017548,7.0447617-0.5349731
	c0.6476593-0.1067505,1.2253265-0.4720917,1.6001663-1.0106201c0.3748322-0.5397186,0.514801-1.20755,0.3890686-1.852829
	c-0.0569382-0.2931366-1.4388428-7.2321777-4.6759491-12.4123993c-3.7269974-5.9605865-3.1184845-14.3421783-2.5823288-21.7380524
	l0.0984573-1.3641205c0.6595154-9.3744354,2.8800583-16.1665344,6.9866333-21.3750763
	c2.4020309-3.0461273,5.3224182-7.3923187,8.0850525-11.7207031c5.6877594,0.0379486,13.1690369,2.6772156,20.4368057,5.2737732
	c6.0115891,2.1470032,11.6886749,4.1741943,16.3551331,4.7234039c2.407959,0.283493,5.1634674,0.3926239,7.9889679,0.3926239
	c7.2748871,0,14.9922028-0.7271271,18.4499359-1.097229c0.5041351,1.3427734,1.1482391,2.8788757,1.9963531,4.7579498
	c1.9489136,4.3141632,3.021225,9.6186371,3.1884766,15.7656097c0.0154114,0.5763245,0.0189819,1.1470337,0.0237274,1.714035
	c0.0154114,1.8729858,0.030838,3.8088379,0.4234619,5.8538208c0.1897888,0.9916534,0.4270325,1.9761963,0.665451,2.9607239
	c0.4887085,2.0141449,0.9501343,3.9166412,0.9501343,5.8040161c0,4.8669128,0.1008301,15.7134094,0.1008301,15.7134094
	l0.010376-0.0001526c-0.0025177,0.0449371-0.0258026,0.0827332-0.0258026,0.1282654
	c0,3.8468018,0.0087433,5.0958557,0.9889832,7.0976868c0.2283478,0.6707916,0.7124481,1.2471313,1.429657,1.5104675
	c4.0662384,1.4910278,7.2725067,1.9465332,9.6733398,1.9465332c3.4387665,0,5.228714-0.9359131,5.5323792-1.1102753
	c1.0853577-0.6240845,1.5183258-1.9714508,0.9999542-3.1101837c-6.3627014-13.9995117-8.1621399-28.6321716-6.6248474-35.2926025
	c0.6832428-2.9619141,0.7733917-6.8537903,0.8682861-10.9745941c0.1565704-6.7233124,0.3499298-15.0906677,3.5988922-18.177124
	c4.2358704-4.0235443,5.7233429-9.1360016,7.1610107-14.0800323c0.2728119-0.9382782,0.5468292-1.8777313,0.8398132-2.8088913
	c1.5230713-4.8455658,5.2453156-8.8062439,8.8453979-12.6376266l1.3000488-1.3878403
	c2.5479279-2.7448349,5.2014313-5.4730606,7.8845825-8.1585846c1.5040894,1.2502365,3.1872864,2.2988281,4.7684784,3.2430267
	l1.2644653,0.7627182c1.10672,0.6832428,2.2325592,1.3380203,3.3592834,1.9914627
	c1.7069244,0.9916534,3.3177643,1.9277039,4.8799744,2.9691696c0.4649811,0.3095932,1.0058899,0.7117157,1.6072845,1.1563873
	c2.8290558,2.0924301,6.9569855,5.1468582,11.1835022,5.1468582c0.4756622,0,0.9525146-0.0391388,1.4293671-0.1221771
	c2.3035736-0.4021149,4.2370453-1.7555542,5.7482605-4.021019
	C235.5999756,109.1532822,234.254837,106.3076248,231.5764313,100.6412125z M212.4742432,93.6597672
	c-1.5430908,0-2.7940674-1.2509842-2.7940674-2.7940674c0-1.5430756,1.2509766-2.7940598,2.7940674-2.7940598
	c1.5430756,0,2.7940521,1.2509842,2.7940521,2.7940598C215.2682953,92.408783,214.0173187,93.6597672,212.4742432,93.6597672z"/>
<g>
</g>
<g>
</g>
<g>
</g>
<g>
</g>
<g>
</g>
<g>
</g>
</svg>
